# xmcd
#
# Track frame offsets:
#       150
#       5542
#       20075
#       39256
#       54416
#       74906
#       90471
#       109832
#       132523
#       144921
#       161261
#       184642
#
# Disc length: 2774 seconds
#
# Revision: 0
# Processed by: cddbd v1.5.2PL0 Copyright (c) Steve Scherf et al.
# Submitted via: WaveLab 4.01
#
DISCID=9d0ad40c
DTITLE=Madame Laycock and Her Dabeno Pleasures - Come My Pretties
DYEAR=2009
DGENRE=Romany Circus Folk
TTITLE0=Welcome!
TTITLE1=Freaks
TTITLE2=La Corana
TTITLE3=Tango
TTITLE4=Swinging In The Trees
TTITLE5=Fiesta
TTITLE6=Istanbul
TTITLE7=Dead Man's Pocket
TTITLE8=Shoes
TTITLE9=White Wedding
TTITLE10=Curly Moustache
TTITLE11=Bullring
EXTD=
EXTT0=
EXTT1=
EXTT2=
EXTT3=
EXTT4=
EXTT5=
EXTT6=
EXTT7=
EXTT8=
EXTT9=
EXTT10=
EXTT11=
PLAYORDER=
